<?xml version="1.0"?>
<svg xmlns="http://www.w3.org/2000/svg" xmlns:xlink="http://www.w3.org/1999/xlink" version="1.1" id="Layer_1" x="0px" y="0px" viewBox="0 0 511.984 511.984" style="enable-background:new 0 0 511.984 511.984;" xml:space="preserve" width="512px" height="512px" class=""><g><ellipse style="fill:#CCCCCC;" cx="140.116" cy="394.4" rx="54.752" ry="10.912" data-original="#CCCCCC"/><path style="fill:#EB7D16" d="M140.196,169.688c-42.856,0-77.592,34.736-77.592,77.592c0,30.64,17.76,57.12,43.544,69.736  l34.048,77.376V169.688z" data-original="#F91E1E" class="" data-old_color="#F91E1E"/><path style="fill:#EB7D16" d="M140.196,394.392l34.048-77.376c25.784-12.616,43.544-39.096,43.544-69.736  c0-42.856-34.736-77.592-77.592-77.592L140.196,394.392L140.196,394.392z" data-original="#E21B1B" class="active-path" data-old_color="#E21B1B"/><path style="fill:#FFE529" d="M140.196,220.448c14.824,0,26.832,12.016,26.832,26.832c0,14.824-12.016,26.832-26.832,26.832  s-26.832-12.016-26.832-26.832C113.356,232.464,125.372,220.448,140.196,220.448z" data-original="#FFFFFF" class="" data-old_color="#FFFFFF"/><ellipse style="fill:#CCCCCC;" cx="320.068" cy="158.344" rx="38.584" ry="7.688" data-original="#CCCCCC"/><path style="fill:#EB7D16" d="M320.156,0c-30.2,0-54.68,24.48-54.68,54.68c0,21.592,12.52,40.256,30.688,49.144l23.992,54.528V0z" data-original="#F91E1E" class="" data-old_color="#F91E1E"/><path style="fill:#EB7D16" d="M320.156,158.344l23.992-54.528c18.168-8.888,30.688-27.552,30.688-49.144  C374.836,24.48,350.356,0,320.156,0V158.344z" data-original="#E21B1B" class="active-path" data-old_color="#E21B1B"/><path style="fill:#FFE529" d="M320.156,35.768c10.448,0,18.912,8.464,18.912,18.912s-8.464,18.912-18.912,18.912  s-18.912-8.464-18.912-18.912S309.716,35.768,320.156,35.768z" data-original="#FFFFFF" class="" data-old_color="#FFFFFF"/><ellipse style="fill:#CCCCCC;" cx="353.268" cy="498.48" rx="67.752" ry="13.504" data-original="#CCCCCC"/><path style="fill:#EB7D16" d="M353.364,220.448c-53.024,0-96.016,42.984-96.016,96.016c0,37.912,21.976,70.68,53.888,86.288  l42.128,95.744V220.448z" data-original="#F91E1E" class="" data-old_color="#F91E1E"/><path style="fill:#EB7D16" d="M353.364,498.496l42.128-95.744c31.904-15.608,53.888-48.376,53.888-86.288  c0-53.024-42.984-96.016-96.016-96.016V498.496z" data-original="#E21B1B" class="active-path" data-old_color="#E21B1B"/><path style="fill:#FFE529" d="M353.364,283.256c18.336,0,33.208,14.864,33.208,33.208c0,18.336-14.864,33.208-33.208,33.208  s-33.208-14.864-33.208-33.208C320.156,298.12,335.02,283.256,353.364,283.256z" data-original="#FFFFFF" class="" data-old_color="#FFFFFF"/></g> </svg>
